<?xml version="1.0" encoding="UTF-8"?>
<svg id="Layer_1" data-name="Layer 1" xmlns="http://www.w3.org/2000/svg" viewBox="0 0 969.43 1080.53">
  <g>
    <path d="M18.79,1060.65h36.36v17.97H0v-95.31h18.79v77.34Z" fill="#fff"/>
    <path d="M73.67,1071.54c-6.81-5.99-10.21-14.02-10.21-24.1v-64.13h18.65v62.63c0,9.94,5.58,16.2,17.7,16.2s17.7-6.26,17.7-16.2v-62.63h18.79v64.13c0,10.08-3.4,18.11-10.21,24.1-6.81,5.99-15.52,8.99-26.28,8.99s-19.34-3-26.14-8.99Z" fill="#fff"/>
    <path d="M208.34,983.31h18.79v95.31h-14.3l-40.85-58.28v58.28h-18.79v-95.31h14.3l40.85,58.14v-58.14Z" fill="#fff"/>
    <path d="M306.12,1078.62l-5.72-17.16h-37.99l-5.72,17.16h-20.29l33.36-95.31h23.28l33.5,95.31h-20.42ZM268.4,1043.9h26.14l-13.07-38.94-13.07,38.94Z" fill="#fff"/>
    <path d="M405.39,983.31c9.12,0,16.88,3.13,23.15,9.26,6.26,6.13,9.4,13.75,9.4,22.74s-3.13,16.61-9.4,22.74c-6.26,6.13-14.02,9.26-23.15,9.26h-16.75v31.32h-18.79v-95.31h35.54ZM405.39,1029.74c8.03,0,13.89-6.26,13.89-14.43s-5.85-14.43-13.89-14.43h-16.75v28.87h16.75Z" fill="#fff"/>
    <path d="M450.2,983.31h18.79v95.31h-18.79v-95.31Z" fill="#fff"/>
    <path d="M496.36,1066.23c-9.4-9.53-14.02-21.24-14.02-35.27s4.63-25.87,14.02-35.27c9.4-9.53,21.24-14.3,35.54-14.3,17.29,0,32.82,8.71,40.98,22.47l-16.2,9.4c-4.77-8.58-13.89-13.62-24.78-13.62-9.26,0-16.75,2.86-22.47,8.71-5.58,5.85-8.44,13.34-8.44,22.6s2.86,16.61,8.44,22.47c5.72,5.85,13.21,8.71,22.47,8.71,10.89,0,20.29-5.17,24.78-13.48l16.2,9.4c-8.17,13.75-23.56,22.47-40.98,22.47-14.3,0-26.14-4.77-35.54-14.3Z" fill="#fff"/>
    <path d="M647.1,983.31v17.97h-25.73v77.34h-18.79v-77.34h-25.6v-17.97h70.12Z" fill="#fff"/>
    <path d="M666.99,1071.54c-6.81-5.99-10.21-14.02-10.21-24.1v-64.13h18.65v62.63c0,9.94,5.58,16.2,17.7,16.2s17.7-6.26,17.7-16.2v-62.63h18.79v64.13c0,10.08-3.4,18.11-10.21,24.1s-15.52,8.99-26.28,8.99-19.34-3-26.14-8.99Z" fill="#fff"/>
    <path d="M798.8,1078.62l-19.2-33.09h-14.3v33.09h-18.79v-95.31h38.13c8.85,0,16.34,3.13,22.47,9.26,6.13,6.13,9.26,13.62,9.26,22.33,0,11.85-7.35,22.74-18.38,27.78l21.11,35.95h-20.29ZM765.31,1000.87v28.19h19.34c7.08,0,12.94-6.4,12.94-14.16s-5.85-14.02-12.94-14.02h-19.34Z" fill="#fff"/>
    <path d="M848.92,1060.65h40.17v17.97h-58.96v-95.31h58.28v17.97h-39.49v20.29h36.08v17.7h-36.08v21.38Z" fill="#fff"/>
    <path d="M897.4,1056.97l16.07-9.4c3.68,9.67,11.03,14.57,21.92,14.57s15.25-4.22,15.25-10.08c0-3.4-1.5-5.99-4.49-7.76-3-1.91-8.31-3.95-16.07-6.13-8.58-2.59-13.75-4.63-19.74-8.85-5.85-4.36-8.99-10.89-8.99-19.61s3-15.52,9.12-20.56c6.13-5.17,13.62-7.76,22.19-7.76,15.39,0,27.5,7.9,34.04,21.38l-15.79,9.12c-3.81-8.17-9.94-12.25-18.25-12.25-7.76,0-12.53,3.95-12.53,9.53,0,3,1.23,5.45,3.68,7.35,2.59,1.77,7.35,3.81,14.43,5.99l6.54,2.18c1.5.41,3.54,1.23,6.13,2.31,2.59.95,4.63,1.91,5.99,2.86,2.86,1.77,7.22,5.17,8.99,8.44,2.04,3.27,3.54,8.03,3.54,13.48,0,8.85-3.27,15.79-9.67,20.97-6.4,5.17-14.71,7.76-24.92,7.76-18.93,0-32.13-8.99-37.44-23.56Z" fill="#fff"/>
  </g>
  <path d="M896.27,595.32c-176.43,176.43-446.61,192.3-603.46,35.45C135.96,473.93,151.83,203.75,328.26,27.32c9.59-9.59,19.47-18.68,29.59-27.32-67.73,21.03-131.49,58.32-185.12,111.95C-3.7,288.38-3.7,574.43,172.73,750.86c176.43,176.43,462.48,176.43,638.91,0,53.63-53.63,90.92-117.39,111.95-185.12-8.64,10.11-17.73,20-27.32,29.59Z" fill="#fff"/>
  <g>
    <rect x="388.33" y="93.59" width="83.61" height="17.38" fill="#fff"/>
    <rect x="421.45" y="60.48" width="17.38" height="83.61" fill="#fff"/>
  </g>
  <g>
    <rect x="727.52" y="521.41" width="83.61" height="17.38" fill="#fff"/>
    <rect x="760.63" y="488.3" width="17.38" height="83.61" fill="#fff"/>
  </g>
  <g>
    <rect x="362.26" y="563.22" width="83.61" height="17.38" fill="#fff"/>
    <rect x="395.37" y="530.1" width="17.38" height="83.61" fill="#fff"/>
  </g>
  <g>
    <rect x="647.73" y="219.51" width="83.61" height="17.38" fill="#fff"/>
    <rect x="680.84" y="186.4" width="17.38" height="83.61" fill="#fff"/>
  </g>
</svg>