<?xml version="1.0" encoding="UTF-8"?>
<svg id="Layer_1" data-name="Layer 1" xmlns="http://www.w3.org/2000/svg" viewBox="0 0 785.34 80.31">
  <path d="M15.22,64.2h29.45v14.56H0V1.54h15.22v62.66Z" fill="#fff"/>
  <path d="M59.68,73.03c-5.52-4.85-8.27-11.36-8.27-19.53V1.54h15.11v50.75c0,8.05,4.52,13.13,14.34,13.13s14.34-5.07,14.34-13.13V1.54h15.22v51.96c0,8.16-2.76,14.67-8.27,19.53-5.52,4.85-12.58,7.28-21.29,7.28s-15.66-2.43-21.18-7.28Z" fill="#fff"/>
  <path d="M168.78,1.54h15.22v77.22h-11.58l-33.1-47.22v47.22h-15.22V1.54h11.58l33.1,47.1V1.54Z" fill="#fff"/>
  <path d="M247.99,78.77l-4.63-13.9h-30.78l-4.63,13.9h-16.44L218.54,1.54h18.86l27.14,77.22h-16.55ZM217.43,50.64h21.18l-10.59-31.55-10.59,31.55Z" fill="#fff"/>
  <path d="M328.41,1.54c7.39,0,13.68,2.54,18.75,7.5,5.07,4.96,7.61,11.14,7.61,18.42s-2.54,13.46-7.61,18.42c-5.07,4.96-11.36,7.5-18.75,7.5h-13.57v25.37h-15.22V1.54h28.79ZM328.41,39.16c6.51,0,11.25-5.07,11.25-11.69s-4.74-11.69-11.25-11.69h-13.57v23.39h13.57Z" fill="#fff"/>
  <path d="M364.7,1.54h15.22v77.22h-15.22V1.54Z" fill="#fff"/>
  <path d="M524.22,1.54v14.56h-20.85v62.66h-15.22V16.11h-20.74V1.54h56.81Z" fill="#fff"/>
  <path d="M540.33,73.03c-5.52-4.85-8.27-11.36-8.27-19.53V1.54h15.11v50.75c0,8.05,4.52,13.13,14.34,13.13s14.34-5.07,14.34-13.13V1.54h15.22v51.96c0,8.16-2.76,14.67-8.27,19.53-5.52,4.85-12.58,7.28-21.29,7.28s-15.66-2.43-21.18-7.28Z" fill="#fff"/>
  <path d="M647.11,78.77l-15.56-26.81h-11.58v26.81h-15.22V1.54h30.89c7.17,0,13.24,2.54,18.2,7.5,4.96,4.96,7.5,11.03,7.5,18.09,0,9.6-5.96,18.42-14.89,22.5l17.1,29.12h-16.44ZM619.98,15.78v22.83h15.66c5.74,0,10.48-5.18,10.48-11.47s-4.74-11.36-10.48-11.36h-15.66Z" fill="#fff"/>
  <path d="M687.71,64.2h32.54v14.56h-47.77V1.54h47.21v14.56h-31.99v16.44h29.23v14.34h-29.23v17.32Z" fill="#fff"/>
  <path d="M726.98,61.23l13.02-7.61c2.98,7.83,8.94,11.8,17.76,11.8s12.36-3.42,12.36-8.16c0-2.76-1.21-4.85-3.64-6.29-2.43-1.54-6.73-3.2-13.02-4.96-6.95-2.1-11.14-3.75-16-7.17-4.74-3.53-7.28-8.83-7.28-15.89s2.43-12.58,7.39-16.66c4.96-4.19,11.03-6.29,17.98-6.29,12.47,0,22.28,6.4,27.58,17.32l-12.8,7.39c-3.09-6.62-8.05-9.93-14.78-9.93-6.29,0-10.15,3.2-10.15,7.72,0,2.43.99,4.41,2.98,5.96,2.1,1.43,5.96,3.09,11.69,4.85l5.3,1.76c1.21.33,2.87.99,4.96,1.88,2.1.77,3.75,1.54,4.85,2.32,2.32,1.43,5.85,4.19,7.28,6.84,1.65,2.65,2.87,6.51,2.87,10.92,0,7.17-2.65,12.8-7.83,16.99-5.19,4.19-11.91,6.29-20.19,6.29-15.33,0-26.03-7.28-30.34-19.08Z" fill="#fff"/>
  <g>
    <path d="M466.81,53.6c-15.43,15.43-39.05,16.81-52.76,3.1-13.71-13.71-12.33-37.34,3.1-52.76.84-.84,1.7-1.63,2.59-2.39-5.92,1.84-11.5,5.1-16.19,9.79-15.43,15.43-15.43,40.44,0,55.86,15.43,15.43,40.44,15.43,55.86,0,4.69-4.69,7.95-10.26,9.79-16.19-.76.88-1.55,1.75-2.39,2.59Z" fill="#fff"/>
    <g>
      <rect x="422.4" y="9.73" width="7.31" height="1.52" fill="#fff"/>
      <rect x="425.29" y="6.83" width="1.52" height="7.31" fill="#fff"/>
    </g>
    <g>
      <rect x="452.06" y="47.13" width="7.31" height="1.52" fill="#fff"/>
      <rect x="454.95" y="44.24" width="1.52" height="7.31" fill="#fff"/>
    </g>
    <g>
      <rect x="420.12" y="50.79" width="7.31" height="1.52" fill="#fff"/>
      <rect x="423.01" y="47.89" width="1.52" height="7.31" fill="#fff"/>
    </g>
    <g>
      <rect x="445.08" y="20.74" width="7.31" height="1.52" fill="#fff"/>
      <rect x="447.97" y="17.84" width="1.52" height="7.31" fill="#fff"/>
    </g>
  </g>
</svg>